<?xml version="1.0" standalone="no"?>
<!DOCTYPE svg PUBLIC "-//W3C//DTD SVG 20010904//EN"
 "http://www.w3.org/TR/2001/REC-SVG-20010904/DTD/svg10.dtd">
<svg version="1.0" xmlns="http://www.w3.org/2000/svg"
 width="500.000000pt" height="650.000000pt" viewBox="0 0 500.000000 650.000000"
 preserveAspectRatio="xMidYMid meet">
<metadata>
Created by potrace 1.15, written by Peter Selinger 2001-2017
</metadata>
<g transform="translate(0.000000,650.000000) scale(0.100000,-0.100000)"
fill="#000000" stroke="none">
<path d="M0 5755 l0 -695 140 0 140 0 0 555 0 555 555 0 555 0 0 140 0 140
-695 0 -695 0 0 -695z"/>
<path d="M3600 6310 l0 -140 550 0 550 0 0 -555 0 -555 145 0 145 0 0 695 0
695 -695 0 -695 0 0 -140z"/>
<path d="M2187 5913 c-3 -5 -15 -42 -27 -83 -12 -41 -35 -119 -51 -172 l-30
-97 -98 -32 -98 -32 -144 111 c-79 61 -149 112 -155 112 -11 0 -455 -317 -481
-343 -9 -9 3 -53 51 -187 l62 -175 -62 -85 -62 -85 -189 4 -188 3 -93 -287
c-51 -158 -91 -289 -88 -292 3 -3 72 -51 153 -107 l148 -101 3 -105 2 -105
-146 -100 c-81 -55 -151 -103 -157 -106 -6 -4 27 -120 84 -297 l93 -290 191 4
190 5 52 -75 c29 -41 56 -81 59 -89 3 -8 -22 -93 -56 -187 -34 -95 -58 -176
-53 -180 4 -4 115 -85 246 -180 l237 -172 38 28 c20 16 88 68 150 115 l112 87
93 -30 c50 -17 97 -36 103 -44 6 -7 33 -90 60 -184 l49 -170 305 0 305 0 50
171 c27 94 54 177 60 184 5 7 51 26 102 43 l91 30 149 -114 c81 -63 150 -114
153 -114 5 1 468 335 483 349 5 5 -19 86 -53 181 -33 95 -59 179 -56 186 3 7
31 47 62 90 l57 77 186 -7 187 -7 92 284 c51 156 92 287 92 293 -1 5 -70 56
-155 113 l-155 105 0 102 0 102 153 105 c130 89 152 108 150 129 -1 13 -41
145 -89 293 l-87 268 -187 -6 -187 -6 -62 86 -63 85 61 175 c34 95 59 178 56
183 -8 13 -474 350 -484 350 -5 0 -69 -46 -143 -103 -73 -57 -139 -106 -146
-111 -7 -4 -56 6 -110 23 l-99 31 -53 180 -53 180 -303 0 c-166 0 -305 -3
-307 -7z m428 -884 c442 -54 805 -372 923 -807 23 -87 26 -115 25 -267 0 -142
-3 -183 -21 -248 -70 -255 -210 -465 -413 -617 -412 -307 -994 -274 -1371 79
-254 238 -384 593 -337 927 40 290 198 554 439 734 78 59 260 145 357 170 151
39 256 46 398 29z"/>
<path d="M2340 4809 c-162 -29 -319 -109 -442 -227 -177 -170 -268 -382 -268
-628 0 -233 85 -438 250 -604 223 -222 530 -304 841 -225 248 63 477 268 570
510 44 114 59 194 59 326 0 393 -248 720 -632 829 -85 25 -290 35 -378 19z
m237 -574 c61 -18 144 -88 176 -149 33 -62 31 -193 -3 -260 -86 -168 -307
-209 -455 -83 -113 95 -124 287 -24 401 82 93 190 125 306 91z"/>
<path d="M0 2155 l0 -695 695 0 695 0 0 145 0 145 -555 0 -555 0 0 550 0 550
-140 0 -140 0 0 -695z"/>
<path d="M4700 2300 l0 -550 -550 0 -550 0 0 -145 0 -145 695 0 695 0 0 695 0
695 -145 0 -145 0 0 -550z"/>
<path d="M1396 929 c-72 -11 -171 -55 -231 -105 -204 -166 -212 -530 -16 -707
99 -89 195 -121 355 -116 106 4 116 6 187 41 71 35 179 130 179 157 0 8 -124
102 -178 135 -9 5 -30 -8 -61 -37 -99 -93 -218 -87 -304 13 -97 113 -63 300
66 365 85 42 157 30 234 -39 l49 -44 97 75 97 75 -20 28 c-56 78 -172 143
-285 160 -79 11 -87 11 -169 -1z"/>
<path d="M0 465 l0 -457 288 4 c262 4 292 6 344 25 121 45 171 113 171 234 0
91 -34 151 -109 190 l-51 26 28 17 c72 43 108 138 88 234 -8 43 -20 64 -53 97
-73 73 -101 78 -423 83 l-283 4 0 -457z m465 231 c37 -16 52 -48 40 -86 -11
-34 -64 -50 -165 -50 l-90 0 0 75 0 75 90 0 c56 0 104 -5 125 -14z m25 -329
c19 -7 41 -24 50 -40 13 -24 13 -30 0 -55 -22 -38 -68 -51 -187 -51 l-103 -1
0 80 0 80 103 -1 c56 0 118 -5 137 -12z"/>
<path d="M2090 465 l0 -455 130 0 130 0 2 238 3 237 185 -237 185 -238 112 0
113 0 0 455 0 455 -130 0 -130 0 -2 -225 -3 -225 -175 225 -175 225 -122 0
-123 0 0 -455z"/>
<path d="M3230 815 l0 -105 165 -2 166 -3 -96 -84 c-52 -46 -95 -90 -95 -98 0
-7 7 -40 16 -72 l17 -59 93 -4 c75 -2 98 -7 121 -24 47 -35 44 -103 -7 -129
-66 -34 -169 -11 -244 55 l-37 33 -82 -81 -81 -82 34 -35 c86 -89 204 -129
369 -123 97 3 113 6 173 36 112 55 157 130 158 263 0 60 -5 85 -23 119 -29 54
-82 98 -145 119 l-49 17 103 88 104 88 0 94 0 94 -330 0 -330 0 0 -105z"/>
<path d="M4140 465 l0 -457 238 5 c254 5 297 12 397 63 73 36 150 116 188 194
31 63 32 68 32 195 0 113 -3 138 -23 187 -44 110 -151 199 -292 244 -44 13
-104 18 -297 22 l-243 4 0 -457z m486 193 c149 -74 152 -298 6 -381 -45 -25
-67 -30 -143 -35 l-89 -5 0 228 0 228 88 -5 c67 -4 101 -11 138 -30z"/>
</g>
</svg>
